<svg viewBox="0 0 512 512" xmlns="http://www.w3.org/2000/svg">
	<path fill="#000000" d="M512 256c0 141.4-114.6 256-256 256S0 397.4 0 256 114.6 0 256 0s256 114.6 256 256Z"/>
	<g fill="currentColor">
  		<path d="M368 112c-17.7 0-32 14.3-32 32s14.3 32 32 32 32-14.3 32-32-14.3-32-32-32z"/>
  		<path d="M416 288c17.7 0 32-14.3 32-32s-14.3-32-32-32-32 14.3-32 32 14.3 32 32 32z"/>
  		<path d="M96 224c-17.67 0-32 14.3-32 32s14.33 32 32 32c17.7 0 32-14.3 32-32s-14.3-32-32-32z"/>
  		<path d="M144 176c17.7 0 32-14.3 32-32s-14.3-32-32-32-32 14.3-32 32 14.3 32 32 32z"/>
  		<path d="M280 292.7V88c0-13.25-10.7-24-24-24s-24 10.75-24 24v204.7c-23.5 9.4-40 32.4-40 59.3 0 35.3 28.7 64 64 64s64-28.7 64-64c0-26.9-16.5-49.9-40-59.3"/>
	</g>
</svg>
